<?xml version="1.0" encoding="UTF-8"?>
<svg version="1.1" xmlns="http://www.w3.org/2000/svg" width="574" height="435">
<path d="M0 0 C0.88886902 -0.00860046 1.77773804 -0.01720093 2.69354248 -0.02606201 C3.67124603 -0.03032196 4.64894958 -0.03458191 5.65628052 -0.03897095 C6.68402588 -0.04714844 7.71177124 -0.05532593 8.7706604 -0.06375122 C12.18190929 -0.0886258 15.59311657 -0.10512482 19.00442505 -0.11953735 C20.74836233 -0.12752287 20.74836233 -0.12752287 22.52753067 -0.13566971 C28.67883902 -0.16240775 34.83012701 -0.1817823 40.98147583 -0.19619751 C47.34631595 -0.21286472 53.71064023 -0.25765856 60.07528496 -0.30856895 C64.95996726 -0.34216131 69.84452579 -0.35376608 74.7293129 -0.35942459 C77.07614214 -0.36615712 79.42296267 -0.38143066 81.76968002 -0.4053154 C85.05002149 -0.43680265 88.3289537 -0.43702822 91.60940552 -0.42959595 C93.06988815 -0.45420395 93.06988815 -0.45420395 94.55987549 -0.47930908 C101.00591828 -0.41936412 101.00591828 -0.41936412 104.36444092 2.12628174 C106.26698624 6.24718253 106.32291196 9.68819188 106.27981567 14.17929077 C106.28682495 15.0790715 106.29383423 15.97885223 106.30105591 16.90589905 C106.31863265 19.87429851 106.30701419 22.84174132 106.29348755 25.81015015 C106.29618255 27.87611066 106.30006504 29.94206994 106.30508423 32.00802612 C106.31097885 36.33558237 106.30241731 40.66280813 106.28372192 44.99032593 C106.2609326 50.53555864 106.27405584 56.08001695 106.29801178 61.62522125 C106.3124706 65.89063342 106.30786333 70.1558622 106.29750061 74.42127991 C106.29483357 76.46580599 106.29810228 78.51034875 106.30741882 80.55485535 C106.31758562 83.41318828 106.30208132 86.27026973 106.27981567 89.12850952 C106.2879126 89.9722966 106.29600952 90.81608368 106.30435181 91.68544006 C106.25120764 95.37072736 105.92713984 97.79757953 104.36245728 101.17854309 C100.33616246 104.23727301 96.57044086 103.84438909 91.6411438 103.78500366 C90.09908768 103.79573662 90.09908768 103.79573662 88.52587891 103.8066864 C85.1250475 103.8236058 81.72552823 103.8041507 78.32473755 103.7828064 C75.96348969 103.78363479 73.60224189 103.78609305 71.24099731 103.79011536 C66.29119519 103.7929756 61.341845 103.77824934 56.39212036 103.75082397 C50.04301229 103.7167415 43.69471255 103.72275764 37.3455658 103.74148655 C32.46940356 103.75204815 27.59342986 103.74312622 22.71728516 103.72810173 C20.37608398 103.72291333 18.03486317 103.72340966 15.69366455 103.72964668 C12.42312182 103.73508851 9.15374163 103.71475541 5.8833313 103.68734741 C4.4275618 103.69713623 4.4275618 103.69713623 2.94238281 103.7071228 C-3.6188116 103.61348674 -3.6188116 103.61348674 -6.80783081 101.24555969 C-9.64200702 97.09981485 -9.39236219 93.53773916 -9.39889526 88.65267944 C-9.40386017 87.77284393 -9.40882507 86.89300842 -9.41394043 85.98651123 C-9.42858138 83.06703924 -9.43536756 80.14762161 -9.44088745 77.2281189 C-9.44663768 75.20271299 -9.45239543 73.17730711 -9.4581604 71.15190125 C-9.46867614 66.90069321 -9.47451493 62.64950413 -9.47799683 58.39828491 C-9.4834802 52.95065133 -9.50750255 47.50326786 -9.53596878 42.0557127 C-9.55459291 37.87012501 -9.55980066 33.68459756 -9.5613327 29.49897194 C-9.56436069 27.49071702 -9.57239411 25.4824632 -9.58551788 23.47424889 C-9.60257221 20.66374069 -9.6006995 17.85384339 -9.59420776 15.04330444 C-9.60342255 14.21350571 -9.61263733 13.38370697 -9.62213135 12.52876282 C-9.58877178 7.91838666 -9.22964138 4.90030021 -6.23776245 1.15390015 C-3.922948 -0.00350708 -2.57718577 0.01853871 0 0 Z M36.76223755 22.15390015 C34.58702972 25.41671188 34.47979436 26.38799094 34.76223755 30.15390015 C35.09223755 31.14390015 35.42223755 32.13390015 35.76223755 33.15390015 C34.77223755 33.81390015 33.78223755 34.47390015 32.76223755 35.15390015 C33.71098755 35.42202515 34.65973755 35.69015015 35.63723755 35.96640015 C38.76223755 37.15390015 38.76223755 37.15390015 40.76223755 40.15390015 C41.15611542 42.47777961 41.4970984 44.81183764 41.76223755 47.15390015 C35.6268111 49.26609614 30.27613419 50.83957348 23.76223755 50.15390015 C21.37573161 48.6142189 20.91993635 47.65566905 20.07473755 44.96640015 C19.97161255 44.36827515 19.86848755 43.77015015 19.76223755 43.15390015 C18.40605256 44.27924119 18.40605256 44.27924119 18.69973755 47.21640015 C18.72036255 48.18577515 18.74098755 49.15515015 18.76223755 50.15390015 C25.31595362 54.03509675 29.25668699 55.80766552 36.76223755 54.15390015 C38.42861605 54.12290884 40.09598793 54.11661745 41.76223755 54.15390015 C40.10910785 67.40068946 40.10910785 67.40068946 35.76223755 73.15390015 C33.76223755 74.21640015 33.76223755 74.21640015 31.76223755 74.15390015 C29.51223755 73.21640015 29.51223755 73.21640015 27.76223755 72.15390015 C28.09223755 73.14390015 28.42223755 74.13390015 28.76223755 75.15390015 C32.99870522 76.16280355 32.99870522 76.16280355 37.13723755 75.21640015 C37.67348755 74.86577515 38.20973755 74.51515015 38.76223755 74.15390015 C38.76223755 73.49390015 38.76223755 72.83390015 38.76223755 72.15390015 C39.69036255 72.66952515 40.61848755 73.18515015 41.57473755 73.71640015 C44.68981702 75.5548626 44.68981702 75.5548626 47.76223755 74.15390015 C46.11223755 73.16390015 44.46223755 72.17390015 42.76223755 71.15390015 C43.24802298 68.03099379 43.76083874 65.15809656 44.76223755 62.15390015 C47.82473755 61.21640015 47.82473755 61.21640015 51.76223755 61.15390015 C56.89989905 64.7091619 60.20930024 69.27862615 61.38723755 75.40390015 C61.51098755 76.31140015 61.63473755 77.21890015 61.76223755 78.15390015 C62.42223755 77.82390015 63.08223755 77.49390015 63.76223755 77.15390015 C63.97194314 73.01296316 63.97194314 73.01296316 62.76223755 69.15390015 C63.75223755 68.82390015 64.74223755 68.49390015 65.76223755 68.15390015 C65.76223755 67.82390015 65.76223755 67.49390015 65.76223755 67.15390015 C64.61755005 67.06108765 64.61755005 67.06108765 63.44973755 66.96640015 C60.76223755 66.15390015 60.76223755 66.15390015 58.94973755 63.96640015 C57.61695018 60.80979849 57.52554245 58.54652996 57.76223755 55.15390015 C63.9714273 51.90818732 69.82053192 51.48445756 76.76223755 51.15390015 C76.26723755 50.16390015 76.26723755 50.16390015 75.76223755 49.15390015 C74.44223755 49.15390015 73.12223755 49.15390015 71.76223755 49.15390015 C71.76223755 46.84390015 71.76223755 44.53390015 71.76223755 42.15390015 C71.43223755 42.15390015 71.10223755 42.15390015 70.76223755 42.15390015 C70.10223755 44.13390015 69.44223755 46.11390015 68.76223755 48.15390015 C64.80223755 48.15390015 60.84223755 48.15390015 56.76223755 48.15390015 C59.72307306 32.5037696 59.72307306 32.5037696 63.76223755 28.15390015 C65.94973755 26.90390015 65.94973755 26.90390015 67.76223755 26.15390015 C64.17631247 25.74408014 63.00212355 25.9794376 60.01223755 28.15390015 C59.26973755 28.81390015 58.52723755 29.47390015 57.76223755 30.15390015 C57.43223755 30.15390015 57.10223755 30.15390015 56.76223755 30.15390015 C56.51473755 31.20577515 56.26723755 32.25765015 56.01223755 33.34140015 C54.99522969 36.96725425 53.30850326 39.35300786 50.76223755 42.15390015 C47.20709107 41.13814401 45.32786363 39.87213068 43.07473755 37.02890015 C42.31161255 36.08015015 41.54848755 35.13140015 40.76223755 34.15390015 C40.10223755 34.15390015 39.44223755 34.15390015 38.76223755 34.15390015 C38.5126975 32.71979646 38.28831113 31.28129943 38.07473755 29.84140015 C37.94712036 29.04089233 37.81950317 28.24038452 37.6880188 27.4156189 C37.76223755 25.15390015 37.76223755 25.15390015 39.2427063 23.3609314 C39.74415161 22.96261108 40.24559692 22.56429077 40.76223755 22.15390015 C39.44223755 22.15390015 38.12223755 22.15390015 36.76223755 22.15390015 Z M52.76223755 28.15390015 C54.74223755 29.14390015 54.74223755 29.14390015 56.76223755 30.15390015 C56.43223755 29.49390015 56.10223755 28.83390015 55.76223755 28.15390015 C54.77223755 28.15390015 53.78223755 28.15390015 52.76223755 28.15390015 Z M68.76223755 28.15390015 C69.42223755 28.81390015 70.08223755 29.47390015 70.76223755 30.15390015 C70.76223755 29.49390015 70.76223755 28.83390015 70.76223755 28.15390015 C70.10223755 28.15390015 69.44223755 28.15390015 68.76223755 28.15390015 Z M71.76223755 32.15390015 C72.76223755 35.15390015 72.76223755 35.15390015 72.76223755 35.15390015 Z M68.76223755 38.15390015 C69.76223755 40.15390015 69.76223755 40.15390015 69.76223755 40.15390015 Z M77.76223755 52.15390015 C77.76223755 54.79390015 77.76223755 57.43390015 77.76223755 60.15390015 C78.42223755 59.82390015 79.08223755 59.49390015 79.76223755 59.15390015 C79.76223755 56.84390015 79.76223755 54.53390015 79.76223755 52.15390015 C79.10223755 52.15390015 78.44223755 52.15390015 77.76223755 52.15390015 Z M26.76223755 55.15390015 C27.76223755 59.15390015 27.76223755 59.15390015 27.76223755 59.15390015 Z M28.76223755 61.15390015 C29.76223755 63.15390015 29.76223755 63.15390015 29.76223755 63.15390015 Z M60.76223755 78.15390015 C59.11223755 78.48390015 57.46223755 78.81390015 55.76223755 79.15390015 C57.64539914 80.26226437 57.64539914 80.26226437 59.76223755 81.15390015 C60.42223755 80.82390015 61.08223755 80.49390015 61.76223755 80.15390015 C61.43223755 79.49390015 61.10223755 78.83390015 60.76223755 78.15390015 Z " fill="#F9F9F9" transform="translate(94.23776245117188,165.84609985351563)"/>
<path d="M0 0 C2.64 0 5.28 0 8 0 C8.67736481 2.03814233 9.34143534 4.08070555 10 6.125 C10.37125 7.26195312 10.7425 8.39890625 11.125 9.5703125 C11.96911949 12.87895941 12.16509276 15.60528016 12 19 C12.66 19 13.32 19 14 19 C14.12117188 18.29875 14.24234375 17.5975 14.3671875 16.875 C15.37304502 11.18029895 16.52311628 5.59105981 18 0 C20.64 0 23.28 0 26 0 C26.10957031 0.92296875 26.21914062 1.8459375 26.33203125 2.796875 C26.49058594 4.10140625 26.64914063 5.4059375 26.8125 6.75 C26.89798096 7.45358643 26.98346191 8.15717285 27.0715332 8.88208008 C27.59065042 13.04723762 28.17470123 17.19474701 28.8359375 21.33984375 C28.97668701 22.22897461 29.11743652 23.11810547 29.26245117 24.03417969 C29.54163031 25.77692462 29.82803042 27.51853109 30.12231445 29.25878906 C30.78996188 33.44299201 31.25822563 36.85376656 30 41 C27.69 41 25.38 41 23 41 C22.01 37.37 21.02 33.74 20 30 C19.01 33.63 18.02 37.26 17 41 C14.69 41 12.38 41 10 41 C7.8755025 37.45917084 7.53491637 34.05008109 7 30 C6.67 29.67 6.34 29.34 6 29 C5.86722656 29.78246094 5.73445312 30.56492188 5.59765625 31.37109375 C5.42105469 32.38300781 5.24445313 33.39492187 5.0625 34.4375 C4.88847656 35.44683594 4.71445313 36.45617187 4.53515625 37.49609375 C4 40 4 40 3 41 C0 41.125 0 41.125 -3 41 C-4.55758741 39.44241259 -4.14858941 37.9761703 -4.15234375 35.80859375 C-4.08506314 29.17850289 -3.32842682 22.64234579 -2.5625 16.0625 C-2.42779297 14.84498047 -2.29308594 13.62746094 -2.15429688 12.37304688 C-1.13616071 3.40848214 -1.13616071 3.40848214 0 0 Z " fill="#E5E5E5" transform="translate(225,198)"/>
<path d="M0 0 C1.85644531 0.24194336 1.85644531 0.24194336 4 1 C5.24511719 2.78735352 5.24511719 2.78735352 6.296875 5.12890625 C6.69471191 5.99209473 7.09254883 6.8552832 7.50244141 7.74462891 C7.91413574 8.67452637 8.32583008 9.60442383 8.75 10.5625 C9.62601248 12.47859308 10.50363618 14.39395029 11.3828125 16.30859375 C11.81883789 17.26620605 12.25486328 18.22381836 12.70410156 19.21044922 C14.88836618 23.91229691 17.26228085 28.51718116 19.66308594 33.11157227 C21.11982612 35.95797588 22 37.75182944 22 41 C8.47 41 -5.06 41 -19 41 C-17.54330105 35.90155369 -16.24515984 32.14824404 -13.875 27.5625 C-13.33617187 26.51191406 -12.79734375 25.46132812 -12.2421875 24.37890625 C-11.83226562 23.59386719 -11.42234375 22.80882812 -11 22 C-10.34 22 -9.68 22 -9 22 C-8.67 20.02 -8.34 18.04 -8 16 C-7.34 16 -6.68 16 -6 16 C-5.88785156 15.29488281 -5.77570313 14.58976563 -5.66015625 13.86328125 C-4.93685092 10.72610488 -3.80542309 8.09872094 -2.4375 5.1875 C-1.98246094 4.21167969 -1.52742188 3.23585937 -1.05859375 2.23046875 C-0.70925781 1.49441406 -0.35992187 0.75835937 0 0 Z M1 11 C0.67 11.99 0.34 12.98 0 14 C0.99 14 1.98 14 3 14 C3.33 15.65 3.66 17.3 4 19 C4.66 19 5.32 19 6 19 C4.69844994 14.92035719 4.69844994 14.92035719 3 11 C2.34 11 1.68 11 1 11 Z M-1 14 C-1.33 15.65 -1.66 17.3 -2 19 C-1.34 18.67 -0.68 18.34 0 18 C-0.33 16.68 -0.66 15.36 -1 14 Z M-3 19 C-4.06775224 20.96466413 -5.06553465 22.96855359 -6 25 C-5.67 25.66 -5.34 26.32 -5 27 C-3.93224776 25.03533587 -2.93446535 23.03144641 -2 21 C-2.33 20.34 -2.66 19.68 -3 19 Z M6 20 C6.66 22.64 7.32 25.28 8 28 C5.36 28 2.72 28 0 28 C0 28.33 0 28.66 0 29 C3.63 29 7.26 29 11 29 C9.90931332 25.22454612 9.0916909 22.52956528 6 20 Z M-7 28 C-6 30 -6 30 -6 30 Z M-9 31 C-9.66 32.32 -10.32 33.64 -11 35 C-10.01 35 -9.02 35 -8 35 C-8.33 33.68 -8.66 32.36 -9 31 Z M-2 34 C-2 34.66 -2 35.32 -2 36 C1.63 36 5.26 36 9 36 C4.78370866 33.89185433 2.60209225 33.82299645 -2 34 Z " fill="#D6D6D6" transform="translate(417,198)"/>
<path d="M0 0 C4.32005069 3.48004083 6.83346288 6.84464775 7.99609375 12.375 C8.76428366 19.74962311 8.35598892 27.71161458 4.54296875 34.22265625 C1.37255155 38.12102422 -2.27655867 39.60200838 -7.25 40.3125 C-12.40055978 39.57670575 -15.94732233 37.67526693 -19.625 33.875 C-22.18257702 29.18610879 -21.90385967 24.02648078 -21.875 18.8125 C-21.87886719 18.11382812 -21.88273437 17.41515625 -21.88671875 16.6953125 C-21.87963657 12.94175702 -21.64787023 9.46098855 -20.75 5.8125 C-20.09 5.8125 -19.43 5.8125 -18.75 5.8125 C-18.46125 5.19375 -18.1725 4.575 -17.875 3.9375 C-16.6432108 1.61078706 -15.63273933 0.15201513 -13.125 -0.8125 C-8.40887776 -1.55715088 -4.38826128 -1.89493101 0 0 Z M-11.37109375 7.82421875 C-14.30744737 11.51274177 -14.50022898 14.28755955 -14.375 18.8125 C-14.39433594 19.51117188 -14.41367187 20.20984375 -14.43359375 20.9296875 C-14.39507277 25.01291133 -13.87726499 26.66213152 -11.2109375 29.8125 C-9.99277344 30.8025 -9.99277344 30.8025 -8.75 31.8125 C-4.51501126 30.70531768 -4.51501126 30.70531768 -1.078125 28.1328125 C1.57782843 23.49270563 0.82686933 17.9786853 0.25 12.8125 C-0.72526419 9.92865427 -1.50004109 9.00164921 -3.75 6.8125 C-7.33279683 5.06703488 -8.20029575 5.39059585 -11.37109375 7.82421875 Z " fill="#E2E2E2" transform="translate(357.75,199.1875)"/>
<path d="M0 0 C1.89510699 -0.08160748 3.79124504 -0.13946459 5.6875 -0.1875 C6.74324219 -0.22230469 7.79898437 -0.25710937 8.88671875 -0.29296875 C12.39613801 0.03727773 14.18743846 0.91940635 17 3 C19.8890388 7.46487815 18.80416376 12.01201127 18 17 C17.34 17 16.68 17 16 17 C16 17.66 16 18.32 16 19 C16.66 19 17.32 19 18 19 C20.36198196 23.57634004 20.59422225 27.96282374 20 33 C18.77592002 35.87658796 17.90678875 37.39757322 15.3125 39.12109375 C12.20867122 40.3007584 9.55934961 40.19118699 6.25 40.125 C5.07953125 40.10695312 3.9090625 40.08890625 2.703125 40.0703125 C1.81109375 40.04710937 0.9190625 40.02390625 0 40 C-0.16811151 35.10723085 -0.32861689 30.2142924 -0.48217773 25.32104492 C-0.53544145 23.65756573 -0.5907578 21.99415092 -0.64819336 20.33081055 C-0.73054248 17.93552527 -0.80542899 15.54010311 -0.87890625 13.14453125 C-0.90594131 12.4047554 -0.93297638 11.66497955 -0.96083069 10.90278625 C-1.06955378 7.11382329 -0.93831637 3.68060123 0 0 Z M8 8 C8 9.98 8 11.96 8 14 C8.99 13.67 9.98 13.34 11 13 C10.65213292 11.02463255 10.65213292 11.02463255 10 9 C9.34 8.67 8.68 8.34 8 8 Z M8 23 C8 25.97 8 28.94 8 32 C8.99 31.67 9.98 31.34 11 31 C11 28.69 11 26.38 11 24 C10.01 23.67 9.02 23.34 8 23 Z " fill="#EBEBEB" transform="translate(290,198)"/>
<path d="M0 0 C0 2.64 0 5.28 0 8 C-5.94 8.495 -5.94 8.495 -12 9 C-14.53159096 15.37960921 -15.77065344 20.25529719 -14 27 C-12.5132649 29.83187638 -11.82292478 30.71785436 -8.8125 31.75 C-8.214375 31.8325 -7.61625 31.915 -7 32 C-7.495 29.525 -7.495 29.525 -8 27 C-9.32 26.67 -10.64 26.34 -12 26 C-12 23.69 -12 21.38 -12 19 C-8.04 19 -4.08 19 0 19 C0 25.93 0 32.86 0 40 C-4.40915748 42.20457874 -9.17876547 41.25054613 -13.6875 39.875 C-19.7377489 36.45033081 -22.92470682 31.5535574 -25 25 C-26.18283011 17.29210712 -24.2793701 11.43673849 -20 5 C-14.2322407 -1.07132558 -7.77318625 -1.36371689 0 0 Z " fill="#DEDEDE" transform="translate(394,198)"/>
<path d="M0 0 C4.45736671 0.0964798 7.49485986 0.74801405 11.25 3.3125 C15.03515339 7.48922098 15.58751992 11.50006183 15.54296875 16.953125 C15.0637501 20.81243252 13.48613742 23.15560011 11.25 26.3125 C8.29335481 27.7908226 5.50770263 27.37282783 2.25 27.3125 C2.26160156 28.31152344 2.27320313 29.31054688 2.28515625 30.33984375 C2.29417969 31.63019531 2.30320312 32.92054688 2.3125 34.25 C2.32410156 35.53777344 2.33570313 36.82554687 2.34765625 38.15234375 C2.25 41.3125 2.25 41.3125 1.25 42.3125 C-1.08297433 42.35342937 -3.41705225 42.35491723 -5.75 42.3125 C-5.94207142 36.65284606 -6.12082399 30.99298989 -6.28710938 25.33251953 C-6.34559792 23.40597181 -6.40775936 21.47953201 -6.47363281 19.55322266 C-6.56755244 16.78828581 -6.64836327 14.02323297 -6.7265625 11.2578125 C-6.75875885 10.3931839 -6.7909552 9.5285553 -6.8241272 8.63772583 C-6.87723194 6.52984128 -6.82310184 4.41978582 -6.75 2.3125 C-4.26997407 -0.16752593 -3.42167487 0.01555307 0 0 Z M2.25 8.3125 C2.25 12.2725 2.25 16.2325 2.25 20.3125 C3.24 20.3125 4.23 20.3125 5.25 20.3125 C6.77491998 17.26266004 6.48562548 14.6701631 6.25 11.3125 C4.95735301 9.34818595 4.95735301 9.34818595 3.25 8.3125 C2.92 8.3125 2.59 8.3125 2.25 8.3125 Z " fill="#E0E0E0" transform="translate(473.75,196.6875)"/>
<path d="M0 0 C4.95513476 0.07088891 8.1312543 0.65178835 12.375 3.25 C15.78994972 7.65638674 15.874393 12.22614113 15.7421875 17.6171875 C15.15370461 21.83673505 13.37657456 24.24842544 10.375 27.25 C7.70441149 27.39115161 5.05067762 27.29247107 2.375 27.25 C2.38660156 28.24902344 2.39820313 29.24804688 2.41015625 30.27734375 C2.41917969 31.56769531 2.42820312 32.85804688 2.4375 34.1875 C2.44910156 35.47527344 2.46070313 36.76304687 2.47265625 38.08984375 C2.375 41.25 2.375 41.25 1.375 42.25 C-1.625 42.375 -1.625 42.375 -4.625 42.25 C-7.6435219 39.2314781 -6.56245996 31.38858704 -6.625 27.25 C-6.56866064 22.64284905 -6.42269829 18.04163644 -6.25 13.4375 C-6.20697754 12.26195557 -6.16395508 11.08641113 -6.11962891 9.87524414 C-5.70008574 0.10332482 -5.70008574 0.10332482 0 0 Z M2.375 8.25 C2.375 12.21 2.375 16.17 2.375 20.25 C3.695 19.92 5.015 19.59 6.375 19.25 C7.22887105 15.94432511 7.22887105 15.94432511 7.375 12.25 C5.64489612 9.76768273 5.64489612 9.76768273 3.375 8.25 C3.045 8.25 2.715 8.25 2.375 8.25 Z " fill="#DDDDDD" transform="translate(448.625,196.75)"/>
<path d="M0 0 C6.75 -0.125 6.75 -0.125 9 1 C9.8515625 3.28515625 9.8515625 3.28515625 10.625 6.0625 C10.88539063 6.98160156 11.14578125 7.90070313 11.4140625 8.84765625 C11.60742188 9.55792969 11.80078125 10.26820313 12 11 C14.35785318 10.10664203 14.35785318 10.10664203 15.125 6.9375 C15.41375 5.968125 15.7025 4.99875 16 4 C16.66 4 17.32 4 18 4 C18 2.68 18 1.36 18 0 C20.64 0 23.28 0 26 0 C25.46128458 5.25920924 24.20741714 9.32163097 22 14.1875 C19.01019474 20.82113041 17.8281904 25.99981089 17.4375 33.25 C17.39431641 33.99507812 17.35113281 34.74015625 17.30664062 35.5078125 C17.20103275 37.338349 17.10005799 39.16915176 17 41 C14.36 41 11.72 41 9 41 C9.00902344 39.80246094 9.01804687 38.60492188 9.02734375 37.37109375 C8.90529493 26.80297369 8.02435074 14.02435074 0 6 C-0.04080783 4.00041636 -0.04254356 1.99954746 0 0 Z " fill="#E0E0E0" transform="translate(260,198)"/>
<path d="M0 0 C2.05078125 0.03255208 4.1015625 0.06510417 6.15234375 0.09765625 C7.6133322 3.01963315 7.26369276 5.596591 7.25 8.85546875 C7.24858505 9.5185202 7.2471701 10.18157166 7.24571228 10.86471558 C7.24011129 12.98407488 7.22755875 15.10332884 7.21484375 17.22265625 C7.20982887 18.65885264 7.20526594 20.09505069 7.20117188 21.53125 C7.19014157 25.0534197 7.17287634 28.5755277 7.15234375 32.09765625 C8.45171875 32.07703125 9.75109375 32.05640625 11.08984375 32.03515625 C12.44400008 32.01366171 13.79990458 32.02617426 15.15234375 32.09765625 C16.15234375 33.09765625 16.15234375 33.09765625 16.27734375 36.59765625 C16.15234375 40.09765625 16.15234375 40.09765625 15.15234375 41.09765625 C12.28966808 41.17090793 9.45162475 41.1900383 6.58984375 41.16015625 C5.78353516 41.15564453 4.97722656 41.15113281 4.14648438 41.14648438 C2.14840619 41.13466143 0.15036592 41.11672539 -1.84765625 41.09765625 C-2.70928777 31.6350958 -2.95641535 22.22290666 -2.97265625 12.72265625 C-2.97716797 11.59867432 -2.98167969 10.47469238 -2.98632812 9.31665039 C-2.98439453 8.26727295 -2.98246094 7.21789551 -2.98046875 6.13671875 C-2.97934082 5.19006348 -2.97821289 4.2434082 -2.97705078 3.26806641 C-2.81532938 0.55541881 -2.72247333 0.14389394 0 0 Z " fill="#DBDBDB" transform="translate(315.84765625,197.90234375)"/>
<path d="M0 0 C0.33 0 0.66 0 1 0 C1.36122881 1.31057393 1.71380311 2.62353624 2.0625 3.9375 C2.25972656 4.66839844 2.45695312 5.39929688 2.66015625 6.15234375 C2.77230469 6.76207031 2.88445312 7.37179688 3 8 C2.67 8.33 2.34 8.66 2 9 C2.78375 9.70125 3.5675 10.4025 4.375 11.125 C7.11404951 14.12491137 8.14491124 16.06659171 9 20 C8.67 20.99 8.34 21.98 8 23 C2.34925669 25.67666788 -3.82693595 26.74502497 -10 26 C-12.5 24.375 -12.5 24.375 -14 22 C-14.5 19 -14.5 19 -14 16 C-12.125 13.625 -12.125 13.625 -10 12 C-9.34 12 -8.68 12 -8 12 C-8 11.34 -8 10.68 -8 10 C-3.61538462 7 -3.61538462 7 -1 7 C-0.67 4.69 -0.34 2.38 0 0 Z " fill="#E5E5E5" transform="translate(128,191)"/>
<path d="M0 0 C2.1879642 3.28194629 2.18876203 4.22475937 2 8 C2 8.99 2 9.98 2 11 C1.01 11 0.02 11 -1 11 C-1.0928125 11.8971875 -1.0928125 11.8971875 -1.1875 12.8125 C-2 15 -2 15 -4 16.875 C-8.37309688 18.51491133 -11.76390086 17.8730513 -16 16 C-18.99308919 12.78790429 -19.92593254 10.99991069 -20.25 6.625 C-20.12625 5.325625 -20.12625 5.325625 -20 4 C-13.54218025 0.02595708 -7.59155854 -1.29640461 0 0 Z " fill="#D7D7D7" transform="translate(171,217)"/>
<path d="M0 0 C0 0.99 0 1.98 0 3 C0.66 3 1.32 3 2 3 C1.95875 3.78375 1.9175 4.5675 1.875 5.375 C1.71271266 8.16116119 1.71271266 8.16116119 4 10 C4.30078125 12.05859375 4.30078125 12.05859375 4.3125 14.4375 C4.32925781 15.21996094 4.34601563 16.00242188 4.36328125 16.80859375 C3.92353251 19.46127163 3.04371546 20.322967 1 22 C0.67 21.34 0.34 20.68 0 20 C-0.66 20.66 -1.32 21.32 -2 22 C-4.05859375 22.23046875 -4.05859375 22.23046875 -6.4375 22.1875 C-7.21996094 22.18105469 -8.00242188 22.17460937 -8.80859375 22.16796875 C-11 22 -11 22 -14 21 C-14.39746831 13.58059154 -13.17415215 8.29629519 -9.0625 2.0625 C-5.8761516 -1.1238484 -4.23816672 -1.41272224 0 0 Z M-2 11 C-1 13 -1 13 -1 13 Z " fill="#E7E7E7" transform="translate(165,193)"/>
<path d="M0 0 C0.99 0 1.98 0 3 0 C3 0.99 3 1.98 3 3 C4.051875 2.773125 5.10375 2.54625 6.1875 2.3125 C10.38801417 1.96819556 11.7162062 2.51227742 15 5 C14.67 6.32 14.34 7.64 14 9 C14.66 9.33 15.32 9.66 16 10 C15.63118644 16.14689273 14.09949571 18.69027374 10 23 C5.57238086 21.60846256 3.0443745 19.47928514 0 16 C0 15.34 0 14.68 0 14 C-0.66 14 -1.32 14 -2 14 C-3.33691415 11.24752969 -4.01837615 9.39508723 -3.875 6.3125 C-3 4 -3 4 -0.9375 2.6875 C-0.298125 2.460625 0.34125 2.23375 1 2 C0.67 1.34 0.34 0.68 0 0 Z " fill="#E4E4E4" transform="translate(135,186)"/>
<path d="M0 0 C5.18159349 2.46742547 9.44662549 6.9203847 11.625 12.25 C11.8125 15.4375 11.8125 15.4375 11.625 18.25 C9.02908919 20.84591081 3.08966279 20.24529258 -0.375 20.25 C-3.29322399 19.64710303 -4.79328234 18.87760461 -7.375 17.25 C-8.3125 15.0625 -8.3125 15.0625 -8.375 13.25 C-7.715 13.25 -7.055 13.25 -6.375 13.25 C-7.035 12.59 -7.695 11.93 -8.375 11.25 C-8.28672878 7.2777953 -7.55768574 5.48850638 -5.125 2.3125 C-2.375 0.25 -2.375 0.25 0 0 Z " fill="#E0E0E0" transform="translate(144.375,225.75)"/>
<path d="M0 0 C1.35158203 0.15275391 1.35158203 0.15275391 2.73046875 0.30859375 C3.41753906 0.39238281 4.10460937 0.47617188 4.8125 0.5625 C6.51065193 5.65695578 4.45270401 10.58138865 2.8125 15.5625 C0.99332789 18.55533154 -0.15261617 19.96159971 -3.125 21.6875 C-5.1875 21.5625 -5.1875 21.5625 -7.8125 19.25 C-8.59625 18.363125 -9.38 17.47625 -10.1875 16.5625 C-10.8475 15.9025 -11.5075 15.2425 -12.1875 14.5625 C-12.6015625 12.3984375 -12.6015625 12.3984375 -12.8125 9.9375 C-12.88726562 9.12023437 -12.96203125 8.30296875 -13.0390625 7.4609375 C-13.08804688 6.83445313 -13.13703125 6.20796875 -13.1875 5.5625 C-12.1975 5.5625 -11.2075 5.5625 -10.1875 5.5625 C-9.919375 4.758125 -9.65125 3.95375 -9.375 3.125 C-8.983125 2.279375 -8.59125 1.43375 -8.1875 0.5625 C-4.98734144 -0.50421952 -3.30205706 -0.38595472 0 0 Z M-8.1875 7.5625 C-7.1875 9.5625 -7.1875 9.5625 -7.1875 9.5625 Z " fill="#E9E9E9" transform="translate(131.1875,219.4375)"/>
<path d="M0 0 C2.41807701 0.36833315 3.65357501 0.56312389 5.2043457 2.51879883 C5.52491943 3.15841553 5.84549316 3.79803223 6.17578125 4.45703125 C6.52833984 5.15763672 6.88089844 5.85824219 7.24414062 6.58007812 C7.59669922 7.31677734 7.94925781 8.05347656 8.3125 8.8125 C8.68439453 9.53759766 9.05628906 10.26269531 9.43945312 11.00976562 C12.09460926 16.41402197 12.09460926 16.41402197 11.66088867 19.1003418 C10.9395022 21.17389485 10.0360414 23.06605605 9 25 C8.34 23.68 7.68 22.36 7 21 C6.34 21.33 5.68 21.66 5 22 C4.7834375 20.39125 4.7834375 20.39125 4.5625 18.75 C4.16250558 16.08337051 3.72408076 13.58600271 3 11 C2.34 11 1.68 11 1 11 C0.566875 12.1446875 0.566875 12.1446875 0.125 13.3125 C-1 16 -1 16 -3 19 C-3 17.35 -3 15.7 -3 14 C-3.99 14.66 -4.98 15.32 -6 16 C-5.37183502 12.05050296 -4.1354471 8.80107972 -2.4375 5.1875 C-1.98246094 4.21167969 -1.52742188 3.23585937 -1.05859375 2.23046875 C-0.70925781 1.49441406 -0.35992187 0.75835937 0 0 Z " fill="#C8C8C8" transform="translate(417,198)"/>
<path d="M0 0 C0 0.99 0 1.98 0 3 C0.66 3 1.32 3 2 3 C1.95875 3.78375 1.9175 4.5675 1.875 5.375 C1.71271266 8.16116119 1.71271266 8.16116119 4 10 C4.30078125 12.05859375 4.30078125 12.05859375 4.3125 14.4375 C4.32925781 15.21996094 4.34601563 16.00242188 4.36328125 16.80859375 C3.92353251 19.46127163 3.04371546 20.322967 1 22 C-1 20 -1 20 -1.375 16.1875 C-1.80062008 12.06570558 -3.02185172 9.97814828 -6 7 C-8.12603185 5.23676495 -8.12603185 5.23676495 -10 4 C-7.56830601 0.23087432 -7.56830601 0.23087432 -5 -0.8125 C-3 -1 -3 -1 0 0 Z " fill="#ADADAD" transform="translate(165,193)"/>
<path d="M0 0 C0.99 0 1.98 0 3 0 C3 0.99 3 1.98 3 3 C4.051875 2.773125 5.10375 2.54625 6.1875 2.3125 C10 2 10 2 12.9375 3.25 C13.9584375 4.11625 13.9584375 4.11625 15 5 C15 5.99 15 6.98 15 8 C11.6317901 8.58943673 8.2700338 9.0994623 4.875 9.5 C2.13644663 9.85336173 -0.36417169 10.23121674 -3 11 C-3.33 9.02 -3.66 7.04 -4 5 C-2.35 4.01 -0.7 3.02 1 2 C0.67 1.34 0.34 0.68 0 0 Z " fill="#C2C2C2" transform="translate(135,186)"/>
<path d="M0 0 C1.53445094 3.06890187 0.54984289 5.70094266 0 9 C0.99 9.33 1.98 9.66 3 10 C3.309375 10.825 3.61875 11.65 3.9375 12.5 C4.288125 13.325 4.63875 14.15 5 15 C7.04105639 15.88693303 7.04105639 15.88693303 9 16 C8.05830937 18.43270079 7.47018066 19.72437686 5.1875 21.0625 C3 21 3 21 0.375 18.6875 C-0.40875 17.800625 -1.1925 16.91375 -2 16 C-2.66 15.34 -3.32 14.68 -4 14 C-4.4140625 11.8359375 -4.4140625 11.8359375 -4.625 9.375 C-4.69976562 8.55773437 -4.77453125 7.74046875 -4.8515625 6.8984375 C-4.90054688 6.27195313 -4.94953125 5.64546875 -5 5 C-4.01 5 -3.02 5 -2 5 C-1.34 3.35 -0.68 1.7 0 0 Z " fill="#C4C4C4" transform="translate(123,220)"/>
<path d="M0 0 C0.33 0 0.66 0 1 0 C1.66 2.64 2.32 5.28 3 8 C2.05125 8.53625 1.1025 9.0725 0.125 9.625 C-3.44450575 12.33782437 -3.83814301 13.79944012 -5 18 C-6.625 19.875 -6.625 19.875 -8 21 C-7.67 18.69 -7.34 16.38 -7 14 C-9.475 15.485 -9.475 15.485 -12 17 C-12 16.01 -12 15.02 -12 14 C-10.68 13.34 -9.36 12.68 -8 12 C-8 11.34 -8 10.68 -8 10 C-3.61538462 7 -3.61538462 7 -1 7 C-0.67 4.69 -0.34 2.38 0 0 Z " fill="#959595" transform="translate(128,191)"/>
<path d="M0 0 C1.37432457 3.81756824 0.67975039 7.07255329 0 11 C1.65 11.33 3.3 11.66 5 12 C5 12.33 5 12.66 5 13 C-2.25581395 13.48372093 -2.25581395 13.48372093 -5.5 11.375 C-7.37956836 8.39901677 -7.31424507 6.45669582 -7 3 C-6.21625 2.87625 -5.4325 2.7525 -4.625 2.625 C-1.85942178 2.20882007 -1.85942178 2.20882007 0 0 Z " fill="#D4D4D4" transform="translate(121,204)"/>
<path d="M0 0 C0.625 2.375 0.625 2.375 1 5 C-1 7 -1 7 -3.5625 7.1875 C-6 7 -6 7 -7 6 C-7.04080783 4.00041636 -7.04254356 1.99954746 -7 0 C-4.3333581 -1.33332095 -2.83319697 -0.67102033 0 0 Z " fill="#C4C4C4" transform="translate(147,214)"/>
<path d="M0 0 C0.33 0 0.66 0 1 0 C1.66 2.64 2.32 5.28 3 8 C1.02 8.99 -0.96 9.98 -3 11 C-3 9.68 -3 8.36 -3 7 C-2.34 7 -1.68 7 -1 7 C-0.67 4.69 -0.34 2.38 0 0 Z " fill="#ADADAD" transform="translate(128,191)"/>
<path d="M0 0 C0.66 0 1.32 0 2 0 C0.55922954 3.36179774 -1.24750021 5.59156268 -4 8 C-4.66 8 -5.32 8 -6 8 C-6 7.34 -6 6.68 -6 6 C-5.34 6 -4.68 6 -4 6 C-3.71125 5.38125 -3.4225 4.7625 -3.125 4.125 C-2 2 -2 2 0 0 Z " fill="#AAAAAA" transform="translate(343,199)"/>
<path d="M0 0 C0.66 0 1.32 0 2 0 C2 0.99 2 1.98 2 3 C1.34 3 0.68 3 0 3 C0 3.66 0 4.32 0 5 C0.66 5.33 1.32 5.66 2 6 C1.01 6.33 0.02 6.66 -1 7 C-1.66 6.34 -2.32 5.68 -3 5 C-1.625 2.5 -1.625 2.5 0 0 Z " fill="#858585" transform="translate(163,228)"/>
<path d="" fill="#000000" transform="translate(0,0)"/>
<path d="" fill="#000000" transform="translate(0,0)"/>
<path d="" fill="#000000" transform="translate(0,0)"/>
<path d="" fill="#000000" transform="translate(0,0)"/>
<path d="" fill="#000000" transform="translate(0,0)"/>
<path d="" fill="#000000" transform="translate(0,0)"/>
<path d="" fill="#000000" transform="translate(0,0)"/>
<path d="" fill="#000000" transform="translate(0,0)"/>
<path d="" fill="#000000" transform="translate(0,0)"/>
<path d="" fill="#000000" transform="translate(0,0)"/>
<path d="" fill="#000000" transform="translate(0,0)"/>
<path d="" fill="#000000" transform="translate(0,0)"/>
<path d="" fill="#000000" transform="translate(0,0)"/>
<path d="" fill="#000000" transform="translate(0,0)"/>
<path d="" fill="#000000" transform="translate(0,0)"/>
<path d="" fill="#000000" transform="translate(0,0)"/>
<path d="" fill="#000000" transform="translate(0,0)"/>
<path d="" fill="#000000" transform="translate(0,0)"/>
<path d="" fill="#000000" transform="translate(0,0)"/>
<path d="" fill="#000000" transform="translate(0,0)"/>
<path d="" fill="#000000" transform="translate(0,0)"/>
<path d="" fill="#000000" transform="translate(0,0)"/>
<path d="" fill="#000000" transform="translate(0,0)"/>
<path d="" fill="#000000" transform="translate(0,0)"/>
<path d="" fill="#000000" transform="translate(0,0)"/>
<path d="" fill="#000000" transform="translate(0,0)"/>
<path d="" fill="#000000" transform="translate(0,0)"/>
<path d="" fill="#000000" transform="translate(0,0)"/>
<path d="" fill="#000000" transform="translate(0,0)"/>
<path d="" fill="#000000" transform="translate(0,0)"/>
<path d="" fill="#000000" transform="translate(0,0)"/>
<path d="" fill="#000000" transform="translate(0,0)"/>
<path d="" fill="#000000" transform="translate(0,0)"/>
<path d="" fill="#000000" transform="translate(0,0)"/>
<path d="" fill="#000000" transform="translate(0,0)"/>
<path d="" fill="#000000" transform="translate(0,0)"/>
<path d="" fill="#000000" transform="translate(0,0)"/>
<path d="" fill="#000000" transform="translate(0,0)"/>
<path d="" fill="#000000" transform="translate(0,0)"/>
<path d="" fill="#000000" transform="translate(0,0)"/>
<path d="" fill="#000000" transform="translate(0,0)"/>
<path d="" fill="#000000" transform="translate(0,0)"/>
<path d="" fill="#000000" transform="translate(0,0)"/>
<path d="" fill="#000000" transform="translate(0,0)"/>
<path d="" fill="#000000" transform="translate(0,0)"/>
<path d="" fill="#000000" transform="translate(0,0)"/>
<path d="" fill="#000000" transform="translate(0,0)"/>
<path d="" fill="#000000" transform="translate(0,0)"/>
<path d="" fill="#000000" transform="translate(0,0)"/>
<path d="" fill="#000000" transform="translate(0,0)"/>
<path d="" fill="#000000" transform="translate(0,0)"/>
<path d="" fill="#000000" transform="translate(0,0)"/>
<path d="" fill="#000000" transform="translate(0,0)"/>
<path d="" fill="#000000" transform="translate(0,0)"/>
<path d="" fill="#000000" transform="translate(0,0)"/>
<path d="" fill="#000000" transform="translate(0,0)"/>
<path d="" fill="#000000" transform="translate(0,0)"/>
<path d="" fill="#000000" transform="translate(0,0)"/>
<path d="" fill="#000000" transform="translate(0,0)"/>
<path d="" fill="#000000" transform="translate(0,0)"/>
<path d="" fill="#000000" transform="translate(0,0)"/>
<path d="" fill="#000000" transform="translate(0,0)"/>
<path d="" fill="#000000" transform="translate(0,0)"/>
<path d="" fill="#000000" transform="translate(0,0)"/>
<path d="" fill="#000000" transform="translate(0,0)"/>
<path d="" fill="#000000" transform="translate(0,0)"/>
<path d="" fill="#000000" transform="translate(0,0)"/>
<path d="" fill="#000000" transform="translate(0,0)"/>
<path d="" fill="#000000" transform="translate(0,0)"/>
<path d="" fill="#000000" transform="translate(0,0)"/>
<path d="" fill="#000000" transform="translate(0,0)"/>
<path d="" fill="#000000" transform="translate(0,0)"/>
<path d="" fill="#000000" transform="translate(0,0)"/>
<path d="" fill="#000000" transform="translate(0,0)"/>
<path d="" fill="#000000" transform="translate(0,0)"/>
<path d="" fill="#000000" transform="translate(0,0)"/>
<path d="" fill="#000000" transform="translate(0,0)"/>
<path d="" fill="#000000" transform="translate(0,0)"/>
<path d="" fill="#000000" transform="translate(0,0)"/>
<path d="" fill="#000000" transform="translate(0,0)"/>
<path d="" fill="#000000" transform="translate(0,0)"/>
<path d="" fill="#000000" transform="translate(0,0)"/>
<path d="" fill="#000000" transform="translate(0,0)"/>
<path d="" fill="#000000" transform="translate(0,0)"/>
<path d="" fill="#000000" transform="translate(0,0)"/>
<path d="" fill="#000000" transform="translate(0,0)"/>
<path d="" fill="#000000" transform="translate(0,0)"/>
<path d="" fill="#000000" transform="translate(0,0)"/>
<path d="" fill="#000000" transform="translate(0,0)"/>
<path d="" fill="#000000" transform="translate(0,0)"/>
<path d="" fill="#000000" transform="translate(0,0)"/>
<path d="" fill="#000000" transform="translate(0,0)"/>
<path d="" fill="#000000" transform="translate(0,0)"/>
<path d="" fill="#000000" transform="translate(0,0)"/>
<path d="" fill="#000000" transform="translate(0,0)"/>
<path d="" fill="#000000" transform="translate(0,0)"/>
</svg>
